<svg width="20" height="21" viewBox="0 0 20 21" fill="none" xmlns="http://www.w3.org/2000/svg">
<path fill-rule="evenodd" clip-rule="evenodd" d="M17.1212 5H15.0001C15.0001 2.23858 12.7615 0 10.0001 0C7.23865 0 5.00008 2.23858 5.00008 5H2.87898C1.82286 5 0.948761 5.82118 0.882881 6.87525L0.132881 18.8752C0.0609206 20.0266 0.975341 21 2.12898 21H17.8712C19.0248 21 19.9392 20.0266 19.8673 18.8752L19.1173 6.87524C19.0514 5.82117 18.1773 5 17.1212 5ZM5.00008 6H2.87898C2.35092 6 1.91387 6.41059 1.88093 6.93763L1.13093 18.9376C1.09495 19.5133 1.55216 20 2.12898 20H17.8712C18.448 20 18.9052 19.5133 18.8692 18.9376L18.1192 6.93762C18.0863 6.41059 17.6492 6 17.1212 6H15.0001V10.5C15.0001 10.7761 14.7762 11 14.5001 11C14.2239 11 14.0001 10.7761 14.0001 10.5V6H6.00008V10.5C6.00008 10.7761 5.77622 11 5.50008 11C5.22394 11 5.00008 10.7761 5.00008 10.5V6ZM10.0001 1C12.2092 1 14.0001 2.79086 14.0001 5H6.00008C6.00008 2.79086 7.79094 1 10.0001 1Z" fill="black"/>
</svg>
