<svg width="22" height="18" viewBox="0 0 22 18" fill="none" xmlns="http://www.w3.org/2000/svg">
<path fill-rule="evenodd" clip-rule="evenodd" d="M15.4835 0.207642C17.0773 0.207642 18.6061 0.840081 19.7341 1.96612C20.8621 3.09217 21.4972 4.61979 21.5 6.21365C21.5 9.4477 20.3135 10.9912 15.011 15.1807L12.2876 17.2945C11.5299 17.8826 10.4701 17.8826 9.7124 17.2945L6.989 15.1807C1.6865 10.9912 0.5 9.4477 0.5 6.21365C0.50278 4.61979 1.13789 3.09217 2.2659 1.96612C3.39391 0.840081 4.92264 0.207642 6.5165 0.207642C8.14236 0.215362 9.7014 0.855542 10.8635 1.99264L11 2.12142L11.1365 1.99264C12.2986 0.855542 13.8576 0.215362 15.4835 0.207642ZM6.51413 1.20764C7.71502 1.21388 8.87239 1.63078 9.7978 2.38096L10.6415 3.16945C10.8432 3.35803 11.1566 3.35803 11.3584 3.16945L12.2015 2.38153C13.127 1.63099 14.2847 1.21389 15.4858 1.20764C16.8139 1.20827 18.0876 1.73552 19.0276 2.67385C19.9679 3.61253 20.4974 4.88591 20.5 6.21455C20.4999 7.6652 20.2459 8.6406 19.4363 9.7491C18.5692 10.9366 17.0545 12.2915 14.3944 14.3934L11.6745 16.5045C11.2776 16.8126 10.7224 16.8126 10.3255 16.5045L7.60557 14.3934C4.9455 12.2915 3.43081 10.9365 2.56365 9.7491C1.75412 8.6406 1.5001 7.6652 1.5 6.21455C1.50254 4.88591 2.03207 3.61253 2.97239 2.67385C3.91236 1.73552 5.18604 1.20827 6.51413 1.20764Z" fill="black"/>
</svg>
