<svg width="146" height="40" viewBox="0 0 146 40" fill="none" xmlns="http://www.w3.org/2000/svg">
<g clip-path="url(#clip0_386_10)">
<path d="M38.76 14.84V14.7H41.4V14.84C41.08 14.84 40.61 15.07 40.58 15.4V23.52C40.5689 23.6199 40.5786 23.721 40.6084 23.817C40.6382 23.9129 40.6875 24.0017 40.7532 24.0778C40.819 24.1538 40.8997 24.2155 40.9903 24.2589C41.0809 24.3023 41.1796 24.3265 41.28 24.33H43.28C44.5 24.33 44.98 23.51 45.35 22.51H45.49L44.93 24.51H38.76V24.37C38.8692 24.3755 38.9784 24.3585 39.0808 24.3201C39.1832 24.2818 39.2767 24.2228 39.3554 24.1469C39.4341 24.071 39.4964 23.9797 39.5385 23.8788C39.5806 23.7778 39.6015 23.6693 39.6 23.56V15.4C39.58 15.07 39.11 14.84 38.76 14.84Z" fill="white"/>
<path d="M45.6899 24.33C45.7988 24.334 45.9074 24.3161 46.0091 24.2772C46.1109 24.2383 46.2038 24.1793 46.2822 24.1036C46.3606 24.028 46.423 23.9373 46.4655 23.8371C46.5081 23.7368 46.53 23.6289 46.5299 23.52V15.65C46.5329 15.5402 46.513 15.4311 46.4715 15.3294C46.4299 15.2278 46.3676 15.1359 46.2886 15.0597C46.2096 14.9835 46.1155 14.9246 46.0124 14.8868C45.9094 14.8489 45.7995 14.833 45.6899 14.84V14.7H51.6899C51.7289 14.6978 51.7675 14.7083 51.8 14.7299C51.8324 14.7516 51.857 14.7832 51.8699 14.82L52.3899 16.66H52.2499C51.8699 15.66 51.3899 14.84 50.1699 14.84H48.1699C48.0695 14.8435 47.9709 14.8677 47.8802 14.9111C47.7896 14.9545 47.7089 15.0162 47.6432 15.0922C47.5775 15.1683 47.5282 15.2571 47.4983 15.353C47.4685 15.449 47.4589 15.5501 47.4699 15.65V19.53H50.1699C50.5899 19.53 50.8899 19.14 50.8899 18.53H51.0299V20.63H50.8899C50.8899 20.04 50.6099 19.63 50.1699 19.63H47.4699V23.48C47.4639 23.5897 47.4814 23.6994 47.5212 23.8018C47.5611 23.9041 47.6224 23.9968 47.701 24.0735C47.7796 24.1502 47.8737 24.2092 47.977 24.2466C48.0803 24.2839 48.1904 24.2987 48.2999 24.29H50.1699C51.3899 24.29 51.8699 23.47 52.2499 22.47H52.3899L51.8699 24.31C51.857 24.3468 51.8324 24.3784 51.8 24.4001C51.7675 24.4217 51.7289 24.4322 51.6899 24.43H45.6899V24.33Z" fill="white"/>
<path d="M59.9999 22.06C59.9999 23.6 58.5799 24.61 56.5899 24.61C54.5999 24.61 53.0999 23.52 53.0999 22C53.0999 21.34 53.3799 21.09 53.7299 21.09C53.8108 21.0898 53.891 21.1063 53.9653 21.1384C54.0396 21.1705 54.1065 21.2176 54.1619 21.2767C54.2172 21.3358 54.2598 21.4057 54.287 21.4819C54.3142 21.5582 54.3253 21.6392 54.3199 21.72C54.2615 21.798 54.2191 21.8867 54.195 21.981C54.171 22.0754 54.1659 22.1736 54.1799 22.27C54.1563 22.5789 54.202 22.8892 54.3137 23.1782C54.4254 23.4672 54.6002 23.7276 54.8255 23.9404C55.0507 24.1532 55.3206 24.3129 55.6155 24.408C55.9104 24.5031 56.2228 24.5311 56.5299 24.49C58.0699 24.49 59.1599 23.64 59.1599 22.49C59.1599 19.77 53.3599 20.31 53.3599 17.13C53.3599 15.64 54.6499 14.61 56.4999 14.61C58.3499 14.61 59.8399 15.7 59.8399 17.23C59.8399 17.9 59.5599 18.15 59.2199 18.15C59.1381 18.1516 59.0568 18.1361 58.9813 18.1046C58.9058 18.0731 58.8377 18.0263 58.7812 17.967C58.7248 17.9078 58.6813 17.8374 58.6536 17.7605C58.6258 17.6835 58.6143 17.6016 58.6199 17.52C58.732 17.3561 58.7817 17.1574 58.7599 16.96C58.7941 16.6588 58.7595 16.3538 58.6586 16.068C58.5576 15.7822 58.3931 15.5231 58.1773 15.3102C57.9616 15.0974 57.7002 14.9363 57.4131 14.8393C57.126 14.7422 56.8205 14.7117 56.5199 14.75C56.2379 14.7139 55.9516 14.7359 55.6785 14.8148C55.4054 14.8937 55.1514 15.0277 54.9321 15.2085C54.7128 15.3894 54.533 15.6133 54.4036 15.8663C54.2742 16.1194 54.198 16.3963 54.1799 16.68C54.1799 19.32 59.9999 19 59.9999 22.06Z" fill="white"/>
<path d="M73.6699 21.74C73.6796 21.7567 73.6847 21.7757 73.6847 21.795C73.6847 21.8143 73.6796 21.8333 73.6699 21.85C73.446 22.6491 72.9653 23.3523 72.3021 23.8512C71.6388 24.35 70.8298 24.6166 69.9999 24.61C67.3399 24.61 65.6799 22.26 65.6799 19.44C65.6799 16.62 67.3099 14.56 69.9099 14.56C71.7999 14.56 73.2299 15.65 73.2299 17.18C73.2299 17.85 72.9399 18.1 72.6099 18.1C72.5281 18.1016 72.4469 18.0861 72.3714 18.0546C72.2959 18.0231 72.2278 17.9763 72.1713 17.917C72.1149 17.8578 72.0714 17.7874 72.0436 17.7105C72.0158 17.6335 72.0044 17.5516 72.0099 17.47C72.1221 17.3061 72.1718 17.1074 72.1499 16.91C72.1839 16.6098 72.1494 16.3058 72.049 16.0208C71.9487 15.7359 71.785 15.4773 71.5704 15.2647C71.3558 15.052 71.0959 14.8907 70.81 14.7929C70.5241 14.6951 70.2198 14.6633 69.9199 14.7C67.5799 14.7 66.6599 17.06 66.6599 19.33C66.6599 21.77 67.7299 24.19 70.2699 24.19C71.0124 24.2017 71.7385 23.9707 72.3377 23.5321C72.9369 23.0935 73.3766 22.4713 73.5899 21.76C73.5899 21.71 73.5899 21.7 73.6599 21.76L73.6699 21.74Z" fill="white"/>
<path d="M74 14.7H76.65V14.84C76.33 14.84 75.85 15.07 75.82 15.4V19.67H80.4V15.4C80.4 15.07 79.91 14.84 79.56 14.84V14.7H82.21V14.84C81.87 14.84 81.41 15.07 81.38 15.4V23.77C81.38 24.09 81.87 24.33 82.21 24.33V24.47H79.58V24.33C79.93 24.33 80.41 24.09 80.42 23.77V19.77H75.84V23.77C75.84 24.09 76.35 24.33 76.67 24.33V24.47H74V24.33C74.35 24.33 74.83 24.09 74.84 23.77V15.4C74.84 15.07 74.35 14.84 74 14.84V14.7Z" fill="white"/>
<path d="M91.0001 23.53C91.1103 23.7523 91.2758 23.9426 91.4807 24.0827C91.6855 24.2228 91.9229 24.3079 92.1701 24.33V24.47H89.3001V24.33C89.8801 24.33 90.1201 24.02 89.9301 23.58L88.9301 21.06H84.6701L83.6001 23.58C83.4201 24.02 83.6701 24.33 84.2501 24.33V24.47H82.3101V24.33C82.5505 24.3162 82.7832 24.2397 82.9849 24.1082C83.1867 23.9766 83.3505 23.7945 83.4601 23.58L87.1501 14.7H87.3001L91.0001 23.53ZM88.8501 20.91L86.7701 16L84.7701 20.93L88.8501 20.91Z" fill="white"/>
<path d="M93.08 16C92.73 15.52 92.5 15.19 92.24 14.88V14.7H93.36L99.53 22.83V15.4C99.53 15.07 99.04 14.84 98.69 14.84V14.7H100.49V14.84C100.16 14.84 99.67 15.07 99.67 15.4V24.47H99.53L93.22 16.12V23.77C93.22 24.09 93.73 24.33 94.07 24.33V24.47H92.24V24.33C92.59 24.33 93.08 24.09 93.08 23.77V16Z" fill="white"/>
<path d="M101 14.84V14.7H105C107.59 14.81 109.33 16.7 109.33 19.58C109.33 22.46 107.45 24.47 104.86 24.47H101V24.33C101.35 24.33 101.83 24.09 101.84 23.77V15.4C101.8 15.07 101.32 14.84 101 14.84ZM102.82 23.77C102.82 24.09 103.33 24.33 103.65 24.33H104.91C107.02 24.33 108.41 22.25 108.41 19.58C108.41 16.58 107.09 14.95 105.05 14.84H103.65C103.33 14.84 102.85 15.07 102.82 15.4V23.77Z" fill="white"/>
<path d="M109.89 24.33C109.999 24.334 110.107 24.3161 110.209 24.2772C110.311 24.2383 110.404 24.1793 110.482 24.1036C110.561 24.028 110.623 23.9373 110.665 23.8371C110.708 23.7368 110.73 23.6289 110.73 23.52V15.65C110.733 15.5402 110.713 15.4311 110.671 15.3294C110.63 15.2278 110.568 15.1359 110.489 15.0597C110.41 14.9835 110.315 14.9246 110.212 14.8868C110.109 14.8489 109.999 14.833 109.89 14.84V14.7H115.89C115.929 14.6978 115.967 14.7083 116 14.7299C116.032 14.7516 116.057 14.7832 116.07 14.82L116.59 16.66H116.45C116.07 15.66 115.59 14.84 114.38 14.84H112.38C112.279 14.8435 112.181 14.8677 112.09 14.9111C112 14.9545 111.919 15.0162 111.853 15.0922C111.787 15.1683 111.738 15.2571 111.708 15.353C111.678 15.449 111.669 15.5501 111.68 15.65V19.53H114.39C114.81 19.53 115.1 19.14 115.1 18.53H115.24V20.63H115.1C115.1 20.04 114.82 19.63 114.39 19.63H111.68V23.48C111.674 23.5897 111.691 23.6994 111.731 23.8018C111.771 23.9041 111.832 23.9968 111.911 24.0735C111.99 24.1502 112.084 24.2092 112.187 24.2466C112.29 24.2839 112.4 24.2987 112.51 24.29H114.39C115.6 24.29 116.08 23.47 116.46 22.47H116.6L116.08 24.31C116.067 24.3468 116.042 24.3784 116.01 24.4001C115.977 24.4217 115.939 24.4322 115.9 24.43H109.9L109.89 24.33Z" fill="white"/>
<path d="M117.16 14.84V14.7H119.81V14.84C119.49 14.84 119.01 15.07 118.98 15.4V23.52C118.969 23.6199 118.979 23.721 119.008 23.817C119.038 23.9129 119.087 24.0017 119.153 24.0778C119.219 24.1538 119.3 24.2155 119.39 24.2589C119.481 24.3023 119.579 24.3265 119.68 24.33H121.68C122.9 24.33 123.38 23.51 123.76 22.51H123.9L123.34 24.51H117.16V24.37C117.269 24.377 117.379 24.3611 117.482 24.3232C117.585 24.2854 117.68 24.2265 117.759 24.1503C117.838 24.0741 117.9 23.9822 117.941 23.8806C117.983 23.7789 118.003 23.6698 118 23.56V15.4C118 15.07 117.51 14.84 117.16 14.84Z" fill="white"/>
<path d="M124.09 14.84V14.7H126.74V14.84C126.42 14.84 125.94 15.07 125.91 15.4V23.52C125.899 23.6199 125.909 23.721 125.938 23.817C125.968 23.9129 126.018 24.0017 126.083 24.0778C126.149 24.1538 126.23 24.2155 126.32 24.2589C126.411 24.3023 126.51 24.3265 126.61 24.33H128.61C129.83 24.33 130.3 23.51 130.68 22.51H130.82L130.26 24.51H124.08V24.37C124.19 24.377 124.299 24.3611 124.403 24.3232C124.506 24.2854 124.6 24.2265 124.679 24.1503C124.758 24.0741 124.82 23.9822 124.862 23.8806C124.903 23.7789 124.923 23.6698 124.92 23.56V15.4C124.92 15.07 124.44 14.84 124.09 14.84Z" fill="white"/>
<path d="M131 24.33C131.109 24.334 131.217 24.3161 131.319 24.2772C131.421 24.2383 131.514 24.1793 131.592 24.1036C131.671 24.028 131.733 23.9373 131.776 23.8371C131.818 23.7368 131.84 23.6289 131.84 23.52V15.65C131.842 15.5407 131.821 15.4322 131.779 15.3312C131.736 15.2303 131.674 15.139 131.595 15.0631C131.517 14.9872 131.423 14.9282 131.321 14.8899C131.218 14.8515 131.109 14.8345 131 14.84V14.7H137C137.04 14.6972 137.08 14.7073 137.115 14.7289C137.149 14.7505 137.175 14.7824 137.19 14.82L137.7 16.66H137.56C137.19 15.66 136.71 14.84 135.49 14.84H133.49C133.39 14.8435 133.291 14.8677 133.2 14.9111C133.11 14.9545 133.029 15.0162 132.963 15.0922C132.898 15.1683 132.848 15.2571 132.818 15.353C132.789 15.449 132.779 15.5501 132.79 15.65V19.53H135.49C135.91 19.53 136.21 19.14 136.21 18.53H136.35V20.63H136.21C136.21 20.04 135.92 19.63 135.49 19.63H132.79V23.48C132.782 23.5892 132.799 23.6987 132.837 23.8011C132.876 23.9035 132.936 23.9963 133.014 24.0732C133.092 24.1501 133.186 24.2093 133.288 24.2467C133.391 24.2841 133.501 24.2989 133.61 24.29H135.49C136.71 24.29 137.19 23.47 137.56 22.47H137.7L137.19 24.31C137.175 24.3476 137.149 24.3795 137.115 24.4011C137.08 24.4227 137.04 24.4328 137 24.43H131V24.33Z" fill="white"/>
<path d="M145.31 22.06C145.31 23.6 143.9 24.61 141.91 24.61C139.92 24.61 138.44 23.52 138.44 21.98C138.44 21.32 138.72 21.07 139.07 21.07C139.151 21.0697 139.23 21.0862 139.304 21.1184C139.378 21.1506 139.444 21.1979 139.499 21.2572C139.553 21.3164 139.595 21.3864 139.621 21.4627C139.647 21.5389 139.657 21.6197 139.65 21.7C139.537 21.8597 139.487 22.0557 139.51 22.25C139.488 22.5594 139.535 22.8699 139.648 23.1588C139.761 23.4478 139.937 23.708 140.163 23.9205C140.389 24.1331 140.659 24.2927 140.954 24.3877C141.25 24.4827 141.562 24.5109 141.87 24.47C143.41 24.47 144.5 23.62 144.5 22.47C144.5 19.75 138.7 20.29 138.7 17.11C138.7 15.62 139.99 14.59 141.84 14.59C143.69 14.59 145.17 15.68 145.17 17.21C145.17 17.88 144.89 18.13 144.56 18.13C144.477 18.133 144.395 18.1186 144.318 18.0877C144.242 18.0568 144.172 18.0102 144.115 17.9508C144.057 17.8914 144.013 17.8206 143.984 17.7429C143.956 17.6652 143.944 17.5825 143.95 17.5C144.066 17.3381 144.117 17.1377 144.09 16.94C144.124 16.6388 144.09 16.3338 143.989 16.048C143.888 15.7622 143.723 15.5031 143.507 15.2902C143.292 15.0774 143.03 14.9163 142.743 14.8193C142.456 14.7222 142.151 14.6917 141.85 14.73C141.568 14.6954 141.282 14.7185 141.01 14.7979C140.738 14.8774 140.484 15.0115 140.265 15.192C140.046 15.3726 139.866 15.5959 139.736 15.8483C139.607 16.1007 139.53 16.3769 139.51 16.66C139.51 19.32 145.31 19 145.31 22.06Z" fill="white"/>
<path d="M32.4701 8.07L31.7701 9.34L32.1801 8C32.5001 7.25278 32.5426 6.41583 32.3001 5.64C32.1963 5.40196 32.0545 5.18241 31.8801 4.99L31.8101 4.91C31.7253 4.82721 31.6483 4.73683 31.5801 4.64L31.4301 4.4C31.3574 4.73753 31.218 5.05713 31.0201 5.34L30.8001 5.61C30.7686 5.63135 30.7414 5.6585 30.7201 5.69C30.549 5.88495 30.4075 6.10395 30.3001 6.34C30.0575 7.11583 30.1001 7.95278 30.4201 8.7L30.8301 10L30.1301 8.73C29.3201 7.25 29.4101 6.04 30.4101 5.02C30.8488 4.43892 31.0811 3.72803 31.0701 3C31.0328 2.4731 31.0766 1.94359 31.2001 1.43L31.5201 0V1.47C31.4044 2.48623 31.6447 3.51113 32.2001 4.37C33.1901 5.38 33.2801 6.59 32.4701 8.07Z" fill="white"/>
<path d="M23.2 29.89C23.2 35.57 18.97 39.17 12.42 39.17C5.04996 39.17 -4.39407e-05 34.58 -4.39407e-05 27.43C-0.0988407 24.2127 1.06444 21.0842 3.24128 18.7131C5.41812 16.3419 8.43591 14.916 11.65 14.74V2.28C11.6 1.28 10.05 0.46 8.91996 0.46V0H17.56V0.46C16.47 0.46 14.92 1.23 14.83 2.28V14.88C20.56 15.74 26.25 19.66 29.71 23.79V24.61C26.39 20.29 20.71 16.1 14.83 15.29V29.48C14.92 30.53 16.47 31.3 17.56 31.3V31.75H8.91996V31.3C10.05 31.3 11.6 30.53 11.65 29.48V15.19C8.58627 15.3627 5.70852 16.7152 3.62037 18.9637C1.53223 21.2122 0.395973 24.1819 0.449956 27.25C0.449956 34.25 5.59996 38.71 12.56 38.71C18.38 38.71 22.29 35.62 22.29 31.07C22.29 28.57 21.11 26.98 19.43 26.98C19.2195 26.9594 19.0071 26.9871 18.809 27.0609C18.6109 27.1348 18.4322 27.2529 18.2866 27.4062C18.141 27.5595 18.0323 27.744 17.9688 27.9457C17.9052 28.1474 17.8885 28.3609 17.92 28.57C15.83 27.07 16.6 23.97 19.24 23.97C21.56 24 23.2 26.39 23.2 29.89Z" fill="white"/>
<path d="M35.62 31.3V31.75H27V31.3C28.13 31.3 29.68 30.53 29.73 29.48V10.56C30.7533 10.9545 31.8867 10.9545 32.91 10.56V29.48C33 30.53 34.53 31.3 35.62 31.3Z" fill="white"/>
</g>
<defs>
<clipPath id="clip0_386_10">
<rect width="145.31" height="39.17" fill="white"/>
</clipPath>
</defs>
</svg>
