<svg xmlns="http://www.w3.org/2000/svg" viewBox="0 0 145.31 39.17"><defs><style>.cls-1{fill:#864392;}.cls-2{fill:#eb6577;}</style></defs><g id="Layer_2" data-name="Layer 2"><g id="BACKGROUND_2" data-name="BACKGROUND 2"><path class="cls-1" d="M38.76,14.84V14.7H41.4v.14c-.32,0-.79.23-.82.56v8.12a.73.73,0,0,0,.7.81h2c1.22,0,1.7-.82,2.07-1.82h.14l-.56,2H38.76v-.14a.8.8,0,0,0,.84-.81V15.4C39.58,15.07,39.11,14.84,38.76,14.84Z"/><path class="cls-1" d="M45.69,24.33a.81.81,0,0,0,.84-.81V15.65a.79.79,0,0,0-.84-.81V14.7h6a.18.18,0,0,1,.18.12l.52,1.84h-.14c-.38-1-.86-1.82-2.08-1.82h-2a.73.73,0,0,0-.7.81v3.88h2.7c.42,0,.72-.39.72-1h.14v2.1h-.14c0-.59-.28-1-.72-1h-2.7v3.85a.77.77,0,0,0,.83.81h1.87c1.22,0,1.7-.82,2.08-1.82h.14l-.52,1.84a.18.18,0,0,1-.18.12h-6Z"/><path class="cls-1" d="M60,22.06c0,1.54-1.42,2.55-3.41,2.55S53.1,23.52,53.1,22c0-.66.28-.91.63-.91a.59.59,0,0,1,.59.63.74.74,0,0,0-.14.55,2.08,2.08,0,0,0,2.35,2.22c1.54,0,2.63-.85,2.63-2,0-2.72-5.8-2.18-5.8-5.36,0-1.49,1.29-2.52,3.14-2.52s3.34,1.09,3.34,2.62c0,.67-.28.92-.62.92a.59.59,0,0,1-.6-.63.83.83,0,0,0,.14-.56,2,2,0,0,0-2.24-2.21,2.08,2.08,0,0,0-2.34,1.93C54.18,19.32,60,19,60,22.06Z"/><path class="cls-1" d="M73.67,21.74a.11.11,0,0,1,0,.11A3.78,3.78,0,0,1,70,24.61c-2.66,0-4.32-2.35-4.32-5.17s1.63-4.88,4.23-4.88c1.89,0,3.32,1.09,3.32,2.62,0,.67-.29.92-.62.92a.59.59,0,0,1-.6-.63.83.83,0,0,0,.14-.56,2,2,0,0,0-2.23-2.21c-2.34,0-3.26,2.36-3.26,4.63,0,2.44,1.07,4.86,3.61,4.86a3.41,3.41,0,0,0,3.32-2.43c0-.05,0-.06.07,0Z"/><path class="cls-1" d="M74,14.7h2.65v.14c-.32,0-.8.23-.83.56v4.27h4.58V15.4c0-.33-.49-.56-.84-.56V14.7h2.65v.14c-.34,0-.8.23-.83.56v8.37c0,.32.49.56.83.56v.14H79.58v-.14c.35,0,.83-.24.84-.56v-4H75.84v4c0,.32.51.56.83.56v.14H74v-.14c.35,0,.83-.24.84-.56V15.4c0-.33-.49-.56-.84-.56Z"/><path class="cls-1" d="M91,23.53a1.45,1.45,0,0,0,1.17.8v.14H89.3v-.14c.58,0,.82-.31.63-.75l-1-2.52H84.67L83.6,23.58c-.18.44.07.75.65.75v.14H82.31v-.14a1.38,1.38,0,0,0,1.15-.75l3.69-8.88h.15Zm-2.15-2.62L86.77,16l-2,4.93Z"/><path class="cls-1" d="M93.08,16c-.35-.48-.58-.81-.84-1.12V14.7h1.12l6.17,8.13V15.4c0-.33-.49-.56-.84-.56V14.7h1.8v.14c-.33,0-.82.23-.82.56v9.07h-.14l-6.31-8.35v7.65c0,.32.51.56.85.56v.14H92.24v-.14c.35,0,.84-.24.84-.56Z"/><path class="cls-1" d="M101,14.84V14.7h4c2.59.11,4.33,2,4.33,4.88s-1.88,4.89-4.47,4.89H101v-.14c.35,0,.83-.24.84-.56V15.4C101.8,15.07,101.32,14.84,101,14.84Zm1.82,8.93c0,.32.51.56.83.56h1.26c2.11,0,3.5-2.08,3.5-4.75,0-3-1.32-4.63-3.36-4.74h-1.4c-.32,0-.8.23-.83.56Z"/><path class="cls-1" d="M109.89,24.33a.81.81,0,0,0,.84-.81V15.65a.79.79,0,0,0-.84-.81V14.7h6a.18.18,0,0,1,.18.12l.52,1.84h-.14c-.38-1-.86-1.82-2.07-1.82h-2a.73.73,0,0,0-.7.81v3.88h2.71c.42,0,.71-.39.71-1h.14v2.1h-.14c0-.59-.28-1-.71-1h-2.71v3.85a.77.77,0,0,0,.83.81h1.88c1.21,0,1.69-.82,2.07-1.82h.14l-.52,1.84a.18.18,0,0,1-.18.12h-6Z"/><path class="cls-1" d="M117.16,14.84V14.7h2.65v.14c-.32,0-.8.23-.83.56v8.12a.73.73,0,0,0,.7.81h2c1.22,0,1.7-.82,2.08-1.82h.14l-.56,2h-6.18v-.14a.79.79,0,0,0,.84-.81V15.4C118,15.07,117.51,14.84,117.16,14.84Z"/><path class="cls-1" d="M124.09,14.84V14.7h2.65v.14c-.32,0-.8.23-.83.56v8.12a.73.73,0,0,0,.7.81h2c1.22,0,1.69-.82,2.07-1.82h.14l-.56,2h-6.18v-.14a.79.79,0,0,0,.84-.81V15.4C124.92,15.07,124.44,14.84,124.09,14.84Z"/><path class="cls-1" d="M131,24.33a.81.81,0,0,0,.84-.81V15.65a.8.8,0,0,0-.84-.81V14.7h6a.19.19,0,0,1,.19.12l.51,1.84h-.14c-.37-1-.85-1.82-2.07-1.82h-2a.73.73,0,0,0-.7.81v3.88h2.7c.42,0,.72-.39.72-1h.14v2.1h-.14c0-.59-.29-1-.72-1h-2.7v3.85a.76.76,0,0,0,.82.81h1.88c1.22,0,1.7-.82,2.07-1.82h.14l-.51,1.84a.19.19,0,0,1-.19.12h-6Z"/><path class="cls-1" d="M145.31,22.06c0,1.54-1.41,2.55-3.4,2.55s-3.47-1.09-3.47-2.63c0-.66.28-.91.63-.91a.58.58,0,0,1,.58.63.79.79,0,0,0-.14.55,2.09,2.09,0,0,0,2.36,2.22c1.54,0,2.63-.85,2.63-2,0-2.72-5.8-2.18-5.8-5.36,0-1.49,1.29-2.52,3.14-2.52s3.33,1.09,3.33,2.62c0,.67-.28.92-.61.92a.59.59,0,0,1-.61-.63.78.78,0,0,0,.14-.56,2,2,0,0,0-2.24-2.21,2.09,2.09,0,0,0-2.34,1.93C139.51,19.32,145.31,19,145.31,22.06Z"/><path class="cls-2" d="M32.47,8.07l-.7,1.27L32.18,8a3.41,3.41,0,0,0,.12-2.36,2.39,2.39,0,0,0-.42-.65l-.07-.08a1.94,1.94,0,0,1-.23-.27l-.15-.24a2.59,2.59,0,0,1-.41.94l-.22.27a.3.3,0,0,0-.08.08,2.65,2.65,0,0,0-.42.65,3.41,3.41,0,0,0,.12,2.36L30.83,10l-.7-1.27c-.81-1.48-.72-2.69.28-3.71A3.27,3.27,0,0,0,31.07,3a5.16,5.16,0,0,1,.13-1.57L31.52,0V1.47a4.42,4.42,0,0,0,.68,2.9C33.19,5.38,33.28,6.59,32.47,8.07Z"/><path class="cls-2" d="M23.2,29.89c0,5.68-4.23,9.28-10.78,9.28C5.05,39.17,0,34.58,0,27.43A12.33,12.33,0,0,1,11.65,14.74V2.28c-.05-1-1.6-1.82-2.73-1.82V0h8.64V.46c-1.09,0-2.64.77-2.73,1.82v12.6c5.73.86,11.42,4.78,14.88,8.91v.82c-3.32-4.32-9-8.51-14.88-9.32V29.48c.09,1.05,1.64,1.82,2.73,1.82v.45H8.92V31.3c1.13,0,2.68-.77,2.73-1.82V15.19A11.87,11.87,0,0,0,.45,27.25c0,7,5.15,11.46,12.11,11.46,5.82,0,9.73-3.09,9.73-7.64,0-2.5-1.18-4.09-2.86-4.09a1.39,1.39,0,0,0-1.51,1.59c-2.09-1.5-1.32-4.6,1.32-4.6C21.56,24,23.2,26.39,23.2,29.89Z"/><path class="cls-2" d="M35.62,31.3v.45H27V31.3c1.13,0,2.68-.77,2.73-1.82V10.56a4.42,4.42,0,0,0,3.18,0V29.48C33,30.53,34.53,31.3,35.62,31.3Z"/></g></g></svg>