<svg width="20" height="20" viewBox="0 0 20 20" fill="none" xmlns="http://www.w3.org/2000/svg">
<path d="M8 8C8.2761 8 8.5 8.2239 8.5 8.5V14.5C8.5 14.7761 8.2761 15 8 15C7.72386 15 7.5 14.7761 7.5 14.5V8.5C7.5 8.2239 7.72386 8 8 8Z" fill="#EA6577"/>
<path d="M12.5 8.5C12.5 8.2239 12.2761 8 12 8C11.7239 8 11.5 8.2239 11.5 8.5V14.5C11.5 14.7761 11.7239 15 12 15C12.2761 15 12.5 14.7761 12.5 14.5V8.5Z" fill="#EA6577"/>
<path fill-rule="evenodd" clip-rule="evenodd" d="M6 3V2C6 0.89543 6.89543 0 8 0H12C13.1046 0 14 0.89543 14 2V3H19.5C19.7761 3 20 3.22386 20 3.5C20 3.77614 19.7761 4 19.5 4H17.9412L17.1107 18.1174C17.0486 19.1746 16.1731 20 15.1142 20H4.88581C3.82686 20 2.95145 19.1746 2.88926 18.1174L2.05882 4H0.5C0.22386 4 0 3.77614 0 3.5C0 3.22386 0.22386 3 0.5 3H6ZM8 1H12C12.5523 1 13 1.44772 13 2V3H7V2C7 1.44772 7.44772 1 8 1ZM3.06055 4L3.88754 18.0587C3.91863 18.5873 4.35633 19 4.88581 19H15.1142C15.6437 19 16.0814 18.5873 16.1125 18.0587L16.9394 4H3.06055Z" fill="#EA6577"/>
</svg>
