<svg width="16" height="18" viewBox="0 0 16 18" fill="none" xmlns="http://www.w3.org/2000/svg">
<path fill-rule="evenodd" clip-rule="evenodd" d="M12 4C12 6.20914 10.2091 8 8 8C5.79086 8 4 6.20914 4 4C4 1.79086 5.79086 0 8 0C10.2091 0 12 1.79086 12 4ZM11 4C11 5.65686 9.6569 7 8 7C6.3431 7 5 5.65686 5 4C5 2.34315 6.3431 1 8 1C9.6569 1 11 2.34315 11 4Z" fill="black"/>
<path fill-rule="evenodd" clip-rule="evenodd" d="M16 14.1666C16 13.7333 15.8642 13.3074 15.5815 12.979C13.7476 10.8488 11.0313 9.5 8 9.5C4.96866 9.5 2.25235 10.8488 0.41847 12.979C0.13576 13.3074 0 13.7333 0 14.1666V16C0 17.1046 0.89543 18 2 18H14C15.1046 18 16 17.1046 16 16V14.1666ZM14 17C14.5523 17 15 16.5523 15 16V14.1666C15 13.9367 14.9281 13.7527 14.8237 13.6314C13.1717 11.7125 10.728 10.5 8 10.5C5.27202 10.5 2.82833 11.7125 1.17632 13.6314C1.07186 13.7527 1 13.9367 1 14.1666V16C1 16.5523 1.44772 17 2 17H14Z" fill="black"/>
</svg>
