<svg width="16" height="16" viewBox="0 0 16 16" fill="none" xmlns="http://www.w3.org/2000/svg">
<path d="M14.4441 0.864849C14.6382 0.736709 14.9019 0.758058 15.0727 0.928918C15.268 1.12418 15.268 1.44076 15.0727 1.63603L8.7088 8L15.0727 14.364C15.268 14.5593 15.268 14.8758 15.0727 15.0711C14.8775 15.2664 14.5609 15.2664 14.3656 15.0711L8.0017 8.7071L1.63773 15.0711C1.44247 15.2663 1.12589 15.2663 0.930632 15.071C0.735362 14.8758 0.735362 14.5592 0.930632 14.3639L7.2946 8L0.930632 1.63607C0.735362 1.44081 0.735372 1.12423 0.930632 0.928968C1.12589 0.733698 1.44247 0.733698 1.63773 0.928968L8.0017 7.2929L14.3656 0.928918C14.39 0.904508 14.4164 0.883149 14.4441 0.864849Z" fill="black"/>
</svg>
